<?xml version="1.0" encoding="utf-8"?>
<!-- Svg Vector Icons : http://www.onlinewebfonts.com/icon -->
<!DOCTYPE svg PUBLIC "-//W3C//DTD SVG 1.1//EN" "http://www.w3.org/Graphics/SVG/1.1/DTD/svg11.dtd">
<svg version="1.1" xmlns="http://www.w3.org/2000/svg" xmlns:xlink="http://www.w3.org/1999/xlink" x="0px" y="0px" viewBox="0 0 1000 1000" enable-background="new 0 0 1000 1000" xml:space="preserve">
<metadata> Svg Vector Icons : http://www.onlinewebfonts.com/icon </metadata>
<g><path d="M804.7,736.7c-39.4,0-71.3,32-71.3,71.4c0,39.4,31.9,71.3,71.3,71.3c39.5,0,71.3-32,71.3-71.3C876.1,768.6,844.2,736.7,804.7,736.7z"/><path d="M531.2,804.1h185.5c0.8-17.8,6.8-34.1,16.5-47.7H514.6C524.3,770,530.3,786.3,531.2,804.1z"/><path d="M443.2,736.7c-39.4,0-71.4,32-71.4,71.4c0,39.4,32,71.3,71.4,71.3c39.4,0,71.2-32,71.2-71.3C514.4,768.6,482.5,736.7,443.2,736.7z"/><path d="M323.4,756c1.1-4.9,4.8-15,14.1-29.3l0.6-1.1l17.4-44.5c6.2,0.9,12.6,1.5,19.6,1.5h515c19.8,0,34.6-4.1,34.6-23.9c0-19.7-15.8-24.6-35.5-24.6l-506.3-1c-29.4-0.3-37.4-23.2-37.4-23.2L204.9,153c-1.9-18.3-17.1-32.4-35.6-32.4H45.8c-19.7,0-35.8,10.5-35.8,30.3c0,19.7,16.1,30.3,35.8,30.3H162l124.2,401.2c12.1,42.6,22.2,72,25.7,88.8l-15.4,31.4c-13.8,22.3-20.8,39.2-21.1,56.6c0,8.8,2.4,18.1,7.5,25.2c7.7,10.9,18.5,15.4,26.7,17.5c8.3,2.1,15.5,2.2,20.7,2.2H355c0.9-17.8,6.8-34.1,16.6-47.7h-41.4C327.9,756.5,325.4,756.3,323.4,756z"/><path d="M956.4,184.7H555c0.1,0.2,0.1,0.3,0.2,0.5H310.9c-25-0.5-47.7,24.3-38,49.2l61.1,199.7l35.2,117.3c3.2,10.8,12,20.3,22.6,25.7c0,0,0.1,0,0.1,0.1c0.7,0.3,1.3,0.7,2,1c5.5,2.6,11.4,4.2,17.2,4.2h439.5c17.5,0,35.8-13.7,40.8-30.4L932,416.1c-0.1,0-0.1,0-0.2,0.1l55.6-182.5C996.3,206.9,981.2,184.7,956.4,184.7z M930.7,258.3c-0.4,2.1-1,4.2-1.9,6.1l-77.4,253.8c-0.4,1.9-0.9,3.8-1.7,5.6c-4,9.3-13.3,15.7-24,15.7H432.5c-10.9,0-20.3-6.7-24.2-16.2c-0.7-1.6-1.2-3.3-1.5-5.1l-74.1-251.5c-2-3.4-3.2-7.4-3.4-11.6c0-0.5-0.1-0.9-0.1-1.4c0-14.4,11.7-26.2,26.2-26.2H905c14.4,0,26.2,11.7,26.2,26.2C931.1,255.3,931,256.8,930.7,258.3z"/><path d="M902.1,756.4h-25.8c9.8,13.6,15.8,29.9,16.6,47.7h9.3c13.3,0,23.9-10.7,23.9-23.8C925.9,767.1,915.4,756.4,902.1,756.4z"/></g>
</svg>