<?xml version="1.0" encoding="utf-8"?>
<!-- Svg Vector Icons : http://www.onlinewebfonts.com/icon -->
<!DOCTYPE svg PUBLIC "-//W3C//DTD SVG 1.1//EN" "http://www.w3.org/Graphics/SVG/1.1/DTD/svg11.dtd">
<svg version="1.1" xmlns="http://www.w3.org/2000/svg" xmlns:xlink="http://www.w3.org/1999/xlink" x="0px" y="0px" viewBox="0 0 1000 1000" enable-background="new 0 0 1000 1000" xml:space="preserve">
<metadata> Svg Vector Icons : http://www.onlinewebfonts.com/icon </metadata>
<g><path d="M500,10c-141.4,0-268.6,60.6-358.1,156.7c-0.4-0.3-0.9-0.6-1.4-0.9l-11.1,14.7C55.2,266.4,10,377.9,10,500c0,122.7,45.7,234.8,120.5,320.8l10,13.2c0.4-0.3,0.9-0.6,1.2-0.8C231.2,929.4,358.5,990,500,990c270.2,0,490-219.8,490-490C990,229.8,770.2,10,500,10z M527.8,321.6c67.1-2.4,131.4-12.9,190.1-30.2c17.1,54.3,27.4,115.7,29.8,180.9H527.8V321.6z M527.8,266.1V68.4c69.6,13.6,130.4,77.8,170.5,170.9C645.8,254.4,588.1,263.7,527.8,266.1z M472.2,68.4v197.9c-60.5-1.9-118.3-10.7-171.2-25.4C341.1,146.9,402.3,82.1,472.2,68.4z M472.2,321.7v150.5H252.4c2.4-64.5,12.5-125.4,29.3-179.3C340.6,309.7,405.1,319.8,472.2,321.7z M196.9,472.2h-130c5.5-86.9,36.6-166.8,86-232.5c23.5,13.5,48.9,25.6,76,36C210.4,334.9,199.2,401.3,196.9,472.2z M196.9,527.8c2.4,70.7,13.5,137,31.9,196.1c-27.2,10.4-52.5,22.6-76.1,36.2c-49.3-65.6-80.3-145.4-85.8-232.2H196.9z M252.4,527.8h219.9V678c-67.2,1.9-131.9,11.4-190.9,28.3C264.8,652.6,254.7,592,252.4,527.8z M472.2,733.5v198.1c-70.2-13.7-131.4-78.9-171.5-173.2C353.6,743.7,411.7,735.3,472.2,733.5z M527.8,931.6V733.7c60.4,2.3,118.3,11.2,170.8,26.4C658.5,853.5,597.5,918,527.8,931.6z M527.8,678.2V527.8h219.9c-2.4,64.9-12.7,126.2-29.6,180.3C659.4,690.7,594.9,680.6,527.8,678.2z M803.1,527.8h130c-5.6,87.9-37.3,168.6-87.6,234.7c-23.1-13.6-48.3-25.6-75-36.2C789.3,666.6,800.7,599.4,803.1,527.8z M803.1,472.2c-2.4-71.7-13.8-138.9-32.7-198.6c26.8-10.5,51.7-22.8,74.8-36.4c50.5,66.1,82.3,146.9,87.8,235H803.1z M808.4,194.3c-17.8,10-36.7,19.2-56.9,27.2c-18.8-44.6-42.2-83.3-69-115.3C729.5,128.1,772.2,157.9,808.4,194.3z M317.6,106.2c-27.3,32.6-51.1,72-70,117.4c-20.6-7.9-39.8-17.1-58-27C226.1,159.2,269.5,128.5,317.6,106.2z M189.4,803.2c18.2-10,37.5-19.1,58.1-27c19,45.6,42.8,85,70.1,117.7C269.5,871.4,226,840.7,189.4,803.2z M682.4,893.8c26.8-32.1,50.3-70.8,69.1-115.4c20.2,8,39.2,17.1,57,27.1C772.4,842.1,729.6,871.9,682.4,893.8z"/></g>
</svg>